<?xml version="1.0" encoding="UTF-8" standalone="no"?>
<svg
   xmlns:dc="http://purl.org/dc/elements/1.1/"
   xmlns:cc="http://creativecommons.org/ns#"
   xmlns:rdf="http://www.w3.org/1999/02/22-rdf-syntax-ns#"
   xmlns:svg="http://www.w3.org/2000/svg"
   xmlns="http://www.w3.org/2000/svg"
   xmlns:sodipodi="http://sodipodi.sourceforge.net/DTD/sodipodi-0.dtd"
   xmlns:inkscape="http://www.inkscape.org/namespaces/inkscape"
   inkscape:export-ydpi="96"
   inkscape:export-xdpi="96"
   inkscape:export-filename="/Users/allanpaiste/Desktop/robo-ss.png"
   sodipodi:docname="robo-ss.svg"
   inkscape:version="1.0beta1 (32d4812, 2019-09-19)"
   id="svg8"
   version="1.1"
   viewBox="0 0 270.93333 270.93334"
   height="1024"
   width="1024">
  <defs
     id="defs2" />
  <sodipodi:namedview
     units="px"
     inkscape:window-maximized="0"
     inkscape:window-y="23"
     inkscape:window-x="0"
     inkscape:window-height="907"
     inkscape:window-width="1600"
     showgrid="false"
     inkscape:document-rotation="0"
     inkscape:current-layer="g51"
     inkscape:document-units="mm"
     inkscape:cy="455.81418"
     inkscape:cx="700.87876"
     inkscape:zoom="1.6802229"
     inkscape:pageshadow="2"
     inkscape:pageopacity="0.0"
     borderopacity="1.0"
     bordercolor="#666666"
     pagecolor="#ffffff"
     id="base" />
  <metadata
     id="metadata5">
    <rdf:RDF>
      <cc:Work
         rdf:about="">
        <dc:format>image/svg+xml</dc:format>
        <dc:type
           rdf:resource="http://purl.org/dc/dcmitype/StillImage" />
        <dc:title />
      </cc:Work>
    </rdf:RDF>
  </metadata>
  <g
     id="layer1"
     inkscape:groupmode="layer"
     inkscape:label="Layer 1">
    <g
       id="g51">
      <rect
         y="82.815636"
         x="100.07098"
         height="59.479073"
         width="80.577271"
         id="rect894"
         style="fill:#e3ff25;fill-opacity:1;stroke:#000000;stroke-width:0.24575;stroke-opacity:0.647773" />
      <path
         inkscape:connector-curvature="0"
         id="path65"
         d="m 79.071188,221.90141 c 0,-0.50932 0.05445,-0.71768 0.121002,-0.46302 0.06655,0.25467 0.06655,0.67138 0,0.92605 -0.06655,0.25466 -0.121002,0.0463 -0.121002,-0.46303 z m 112.447912,0 c 0,-0.50932 0.0544,-0.71768 0.121,-0.46302 0.0666,0.25467 0.0666,0.67138 0,0.92605 -0.0666,0.25466 -0.121,0.0463 -0.121,-0.46303 z M 72.610195,215.89984 c 0.190995,-0.0764 0.419201,-0.067 0.507119,0.0209 0.08792,0.0879 -0.06835,0.15045 -0.347265,0.13896 -0.308227,-0.0127 -0.37092,-0.0754 -0.159854,-0.15985 z m 125.147905,0 c 0.191,-0.0764 0.4192,-0.067 0.50712,0.0209 0.0879,0.0879 -0.0684,0.15045 -0.34726,0.13896 -0.30823,-0.0127 -0.37092,-0.0754 -0.15986,-0.15985 z m -31.96497,-15.26499 c 0,-0.0549 0.20836,-0.2633 0.46302,-0.46302 0.41965,-0.32911 0.42901,-0.31975 0.0999,0.0999 -0.34565,0.44073 -0.56292,0.58089 -0.56292,0.36312 z m -76.179104,-1.64194 c 0.0127,-0.30823 0.07539,-0.37092 0.159851,-0.15985 0.07643,0.19099 0.06703,0.4192 -0.02088,0.50712 -0.08792,0.0879 -0.150452,-0.0684 -0.138964,-0.34727 z m 91.281244,0 c 0.0127,-0.30823 0.0754,-0.37092 0.15985,-0.15985 0.0764,0.19099 0.067,0.4192 -0.0209,0.50712 -0.0879,0.0879 -0.15045,-0.0684 -0.13896,-0.34727 z m -12.19172,-1.26847 c 0,-0.0549 0.20836,-0.2633 0.46302,-0.46302 0.41964,-0.32911 0.429,-0.31975 0.0999,0.0999 -0.34564,0.44073 -0.56291,0.58089 -0.56291,0.36313 z m -77.796534,-15.70896 -1.44617,-1.52136 1.521354,1.44617 c 0.836744,0.7954 1.521354,1.48001 1.521354,1.52136 0,0.19639 -0.253,-0.0328 -1.596538,-1.44617 z M 134.3789,139.43265 c 0.25743,-0.0671 0.61462,-0.0627 0.79375,0.01 0.17913,0.0725 -0.0315,0.12737 -0.46806,0.12197 -0.43656,-0.005 -0.58312,-0.0647 -0.32569,-0.13177 z m 3.70416,0 c 0.25744,-0.0671 0.61462,-0.0627 0.79375,0.01 0.17913,0.0725 -0.0315,0.12737 -0.46805,0.12197 -0.43656,-0.005 -0.58313,-0.0647 -0.3257,-0.13177 z m -4.56909,-3.6876 c -7.30212,-1.4093 -13.00653,-5.58446 -16.10479,-11.7874 -1.91886,-3.84168 -2.2763,-5.39128 -2.2776,-9.87394 -7.9e-4,-3.05638 0.10308,-4.06504 0.59446,-5.7677 2.14863,-7.4451 7.88242,-13.178878 15.32752,-15.327508 2.96921,-0.85691 8.56619,-0.85691 11.5354,0 5.99612,1.73046 10.93104,5.78899 13.64438,11.221278 1.91957,3.84312 2.27652,5.3913 2.27652,9.87393 0,4.46764 -0.34977,5.98799 -2.2826,9.92188 -1.21812,2.47923 -1.65228,3.0642 -4.03549,5.43716 -2.35584,2.34573 -2.99787,2.82137 -5.44864,4.03661 -1.52797,0.75766 -3.4925,1.56657 -4.36562,1.79759 -1.55557,0.41158 -7.52337,0.72675 -8.86354,0.4681 z m 7.54046,-12.77798 c 1.99779,-0.98351 3.88031,-2.92279 4.84315,-4.9892 0.59924,-1.28607 0.70494,-1.86994 0.70494,-3.89416 0,-2.02422 -0.1057,-2.60808 -0.70494,-3.89415 -1.59801,-3.42958 -4.80254,-5.67082 -8.50895,-5.95113 l -2.02258,-0.15297 v 1.27757 c 0,2.41137 -1.88502,4.94314 -4.19588,5.63549 -1.17013,0.35058 -3.38187,0.41053 -3.57569,0.0969 -0.24452,-0.39564 0.85182,-2.40348 1.98165,-3.62921 1.26774,-1.37533 2.73304,-2.30568 4.40086,-2.7942 1.29431,-0.37912 1.40296,-0.78363 0.61954,-2.30667 -1.0887,-2.11655 -3.06592,-3.322228 -5.44819,-3.322228 -3.46012,0 -6.04207,2.582308 -6.04391,6.044748 -10e-4,2.37502 1.20438,4.35917 3.30561,5.44014 0.96323,0.49553 0.96516,0.49999 0.70331,1.62941 -0.37621,1.62269 -0.0701,4.26089 0.68603,5.91249 1.22273,2.6708 3.94021,4.96663 6.70569,5.66524 1.84382,0.46577 4.73078,0.1272 6.54936,-0.76809 z m -30.23325,-7.16357 c 0,-0.50932 0.0545,-0.71768 0.121,-0.46302 0.0665,0.25466 0.0665,0.67138 0,0.92604 -0.0666,0.25467 -0.121,0.0463 -0.121,-0.46302 z m 51.31937,-0.13229 c 0.005,-0.43656 0.0647,-0.58312 0.13177,-0.32569 0.0671,0.25743 0.0627,0.61462 -0.01,0.79375 -0.0725,0.17913 -0.12736,-0.0315 -0.12197,-0.46806 z m -51.32917,-3.43958 c 0.005,-0.43656 0.0647,-0.58313 0.13177,-0.3257 0.0671,0.25744 0.0627,0.61462 -0.01,0.79375 -0.0725,0.17913 -0.12736,-0.0315 -0.12197,-0.46805 z m 51.33897,-0.13229 c 0,-0.50933 0.0545,-0.71769 0.121,-0.46302 0.0666,0.25466 0.0666,0.67138 0,0.92604 -0.0665,0.25466 -0.121,0.0463 -0.121,-0.46302 z M 119.75563,94.536942 c 0,-0.0549 0.20836,-0.2633 0.46302,-0.46302 0.41965,-0.32911 0.42901,-0.31975 0.0999,0.0999 -0.34564,0.44073 -0.56291,0.58088 -0.56291,0.36312 z m 33.03917,-0.36312 c -0.32911,-0.41965 -0.31975,-0.42901 0.0999,-0.0999 0.44073,0.34564 0.58089,0.56292 0.36313,0.56292 -0.0549,0 -0.2633,-0.20836 -0.46302,-0.46302 z m -18.4159,-5.80575 c 0.25743,-0.0671 0.61462,-0.0627 0.79375,0.01 0.17913,0.0725 -0.0315,0.12737 -0.46806,0.12197 -0.43656,-0.005 -0.58312,-0.0647 -0.32569,-0.13177 z m 3.70416,0 c 0.25744,-0.0671 0.61462,-0.0627 0.79375,0.01 0.17913,0.0725 -0.0315,0.12737 -0.46805,0.12197 -0.43656,-0.005 -0.58313,-0.0647 -0.3257,-0.13177 z M 111.55355,30.772363 c 0,-0.05494 0.20836,-0.2633 0.46302,-0.463021 0.41964,-0.329107 0.429,-0.319749 0.0999,0.0999 -0.34564,0.44073 -0.56292,0.580888 -0.56292,0.363125 z m 45.88007,-3.141249 -0.50403,-0.595313 0.59531,0.504028 c 0.32742,0.277215 0.59532,0.545106 0.59532,0.595313 0,0.211733 -0.21294,0.05542 -0.6866,-0.504028 z m -41.91132,-1.12448 c 0.34177,-0.363802 0.68094,-0.661458 0.7537,-0.661458 0.0728,0 -0.14734,0.297656 -0.48912,0.661458 -0.34177,0.363803 -0.68094,0.661459 -0.7537,0.661459 -0.0728,0 0.14734,-0.297656 0.48912,-0.661459 z m 29.86417,-10.914062 c -0.32911,-0.419643 -0.31975,-0.429002 0.0999,-0.09989 0.25466,0.199719 0.46302,0.408078 0.46302,0.463021 0,0.217761 -0.21727,0.0776 -0.56291,-0.363127 z M 128.75146,13.32697 c 0,-0.04554 0.38696,-0.432488 0.8599,-0.859896 l 0.8599,-0.777105 -0.77711,0.859895 c -0.72437,0.801544 -0.94269,0.981512 -0.94269,0.777106 z m 13.72459,-0.380231 c -0.32911,-0.419644 -0.31975,-0.429002 0.0999,-0.09989 0.44072,0.345643 0.58088,0.562915 0.36312,0.562915 -0.0549,0 -0.2633,-0.208359 -0.46302,-0.463021 z m -8.56521,-4.5640619 c 0.26339,-0.291042 0.53842,-0.529167 0.61118,-0.529167 0.0728,0 -0.0832,0.238125 -0.3466,0.529167 -0.26339,0.291042 -0.53842,0.529167 -0.61118,0.529167 -0.0728,0 0.0832,-0.238125 0.3466,-0.529167 z"
         style="fill:#bacb84;fill-opacity:1;stroke-width:0.264583" />
      <path
         inkscape:connector-curvature="0"
         id="path63"
         d="m 116.71292,264.47625 c -18.567733,-0.5975 -32.650635,-2.18876 -34.024809,-3.84454 -1.492573,-1.79844 8.482797,-3.34948 28.203979,-4.38535 3.87017,-0.20329 13.42785,-0.33355 24.47396,-0.33355 17.91952,0 25.17117,0.21493 35.71875,1.05861 9.4055,0.75234 15.48613,1.75458 16.72337,2.75644 0.50425,0.40831 0.53841,0.53925 0.23582,0.90385 -2.39352,2.88401 -39.32469,4.8745 -71.33107,3.84454 z m 15.67657,-39.31048 c 0.1819,-0.0734 0.47955,-0.0734 0.66146,0 0.1819,0.0734 0.0331,0.13345 -0.33073,0.13345 -0.36381,0 -0.51263,-0.0601 -0.33073,-0.13345 z m 4.7625,0 c 0.1819,-0.0734 0.47955,-0.0734 0.66146,0 0.1819,0.0734 0.0331,0.13345 -0.33073,0.13345 -0.36381,0 -0.51263,-0.0601 -0.33073,-0.13345 z m -17.43011,-6.10863 c -0.32911,-0.41964 -0.31975,-0.429 0.0999,-0.0999 0.25466,0.19972 0.46302,0.40808 0.46302,0.46302 0,0.21776 -0.21727,0.0776 -0.56291,-0.36313 z m 30.19625,0.36313 c 0,-0.0549 0.20836,-0.2633 0.46302,-0.46302 0.41965,-0.32911 0.42901,-0.31975 0.0999,0.0999 -0.34564,0.44073 -0.56292,0.58089 -0.56292,0.36313 z m 30.42708,-37.60323 c 0.34178,-0.3638 0.68094,-0.66146 0.7537,-0.66146 0.0728,0 -0.14734,0.29766 -0.48911,0.66146 -0.34178,0.3638 -0.68094,0.66146 -0.7537,0.66146 -0.0728,0 0.14734,-0.29766 0.48911,-0.66146 z m 48.43964,-9.01788 c 0.0127,-0.30823 0.0754,-0.37092 0.15985,-0.15985 0.0764,0.19099 0.067,0.4192 -0.0209,0.50712 -0.0879,0.0879 -0.15046,-0.0684 -0.13897,-0.34727 z m -187.324988,-1.5875 c 0.0127,-0.30823 0.07539,-0.37092 0.159851,-0.15985 0.07643,0.19099 0.06703,0.4192 -0.02088,0.50712 -0.08792,0.0879 -0.150453,-0.0684 -0.138965,-0.34727 z m 187.589568,0 c 0.0127,-0.30823 0.0754,-0.37092 0.15985,-0.15985 0.0764,0.19099 0.067,0.4192 -0.0209,0.50712 -0.0879,0.0879 -0.15045,-0.0684 -0.13897,-0.34727 z M 41.216165,168.98475 c 0,-0.3638 0.06006,-0.51263 0.133453,-0.33073 0.0734,0.1819 0.0734,0.47956 0,0.66146 -0.0734,0.1819 -0.133453,0.0331 -0.133453,-0.33073 z m 15.854113,0.11024 c 0.0127,-0.30822 0.07539,-0.37091 0.15985,-0.15985 0.07643,0.191 0.06703,0.4192 -0.02088,0.50712 -0.08792,0.0879 -0.150453,-0.0683 -0.138965,-0.34727 z m 156.368742,0 c 0.0127,-0.30822 0.0754,-0.37091 0.15985,-0.15985 0.0764,0.191 0.067,0.4192 -0.0209,0.50712 -0.0879,0.0879 -0.15045,-0.0683 -0.13896,-0.34727 z m 15.89588,-0.11024 c 0,-0.3638 0.0601,-0.51263 0.13346,-0.33073 0.0734,0.1819 0.0734,0.47956 0,0.66146 -0.0734,0.1819 -0.13346,0.0331 -0.13346,-0.33073 z M 56.805694,166.97833 c 0.0127,-0.30823 0.07539,-0.37092 0.159851,-0.15986 0.07643,0.191 0.06703,0.41921 -0.02088,0.50712 -0.08792,0.0879 -0.150452,-0.0683 -0.138964,-0.34726 z m 156.897906,0 c 0.0127,-0.30823 0.0754,-0.37092 0.15985,-0.15986 0.0764,0.191 0.067,0.41921 -0.0209,0.50712 -0.0879,0.0879 -0.15046,-0.0683 -0.13897,-0.34726 z M 40.97119,165.80975 c 0,-0.50932 0.05445,-0.71768 0.121002,-0.46302 0.06655,0.25466 0.06655,0.67138 0,0.92604 -0.06655,0.25466 -0.121002,0.0463 -0.121002,-0.46302 z m 188.64791,0 c 0,-0.50932 0.0545,-0.71768 0.121,-0.46302 0.0665,0.25466 0.0665,0.67138 0,0.92604 -0.0665,0.25466 -0.121,0.0463 -0.121,-0.46302 z M 56.62028,161.57642 c 0,-1.67349 0.04296,-2.3581 0.09547,-1.52136 0.05251,0.83675 0.05251,2.20597 0,3.04271 -0.05251,0.83675 -0.09547,0.15214 -0.09547,-1.52135 z m 157.42707,0 c 0,-1.67349 0.043,-2.3581 0.0955,-1.52136 0.0525,0.83675 0.0525,2.20597 0,3.04271 -0.0525,0.83675 -0.0955,0.15214 -0.0955,-1.52135 z M 40.97119,157.34308 c 0,-0.50932 0.05445,-0.71768 0.121002,-0.46302 0.06655,0.25466 0.06655,0.67138 0,0.92605 -0.06655,0.25466 -0.121002,0.0463 -0.121002,-0.46303 z m 188.64791,0 c 0,-0.50932 0.0545,-0.71768 0.121,-0.46302 0.0665,0.25466 0.0665,0.67138 0,0.92605 -0.0665,0.25466 -0.121,0.0463 -0.121,-0.46303 z M 56.805694,156.13041 c 0.0127,-0.30822 0.07539,-0.37092 0.159851,-0.15985 0.07643,0.19099 0.06703,0.4192 -0.02088,0.50712 -0.08792,0.0879 -0.150452,-0.0684 -0.138964,-0.34727 z m 156.897906,0 c 0.0127,-0.30822 0.0754,-0.37092 0.15985,-0.15985 0.0764,0.19099 0.067,0.4192 -0.0209,0.50712 -0.0879,0.0879 -0.15046,-0.0684 -0.13897,-0.34727 z M 41.216165,154.16808 c 0,-0.3638 0.06006,-0.51263 0.133453,-0.33072 0.0734,0.1819 0.0734,0.47955 0,0.66145 -0.0734,0.1819 -0.133453,0.0331 -0.133453,-0.33073 z m 188.118735,0 c 0,-0.3638 0.0601,-0.51263 0.13346,-0.33072 0.0734,0.1819 0.0734,0.47955 0,0.66145 -0.0734,0.1819 -0.13346,0.0331 -0.13346,-0.33073 z M 57.070278,154.01375 c 0.0127,-0.30823 0.07539,-0.37092 0.15985,-0.15986 0.07643,0.191 0.06703,0.4192 -0.02088,0.50712 -0.08792,0.0879 -0.150453,-0.0684 -0.138965,-0.34726 z m 156.368742,0 c 0.0127,-0.30823 0.0754,-0.37092 0.15985,-0.15986 0.0764,0.191 0.067,0.4192 -0.0209,0.50712 -0.0879,0.0879 -0.15045,-0.0684 -0.13896,-0.34726 z M 41.459862,151.89708 c 0.0127,-0.30823 0.07539,-0.37092 0.159851,-0.15985 0.07643,0.19099 0.06703,0.4192 -0.02088,0.50711 -0.08792,0.0879 -0.150453,-0.0684 -0.138965,-0.34726 z m 187.589568,0 c 0.0127,-0.30823 0.0754,-0.37092 0.15985,-0.15985 0.0764,0.19099 0.067,0.4192 -0.0209,0.50711 -0.0879,0.0879 -0.15045,-0.0684 -0.13897,-0.34726 z m -187.324985,-1.5875 c 0.0127,-0.30823 0.07539,-0.37092 0.159851,-0.15985 0.07643,0.19099 0.06703,0.4192 -0.02088,0.50711 -0.08792,0.0879 -0.150452,-0.0684 -0.138964,-0.34726 z m 187.060405,0 c 0.0127,-0.30823 0.0754,-0.37092 0.15985,-0.15985 0.0764,0.19099 0.067,0.4192 -0.0209,0.50711 -0.0879,0.0879 -0.15046,-0.0684 -0.13897,-0.34726 z M 63.663972,135.64725 c -0.238466,-0.15411 -0.2711,-0.2581 -0.08176,-0.26053 0.173313,-0.002 0.3887,0.11501 0.478637,0.26053 0.203015,0.32849 0.111421,0.32849 -0.396875,0 z m 143.037208,-0.31299 c 0.0764,-0.12364 0.24977,-0.15631 0.38523,-0.0726 0.34618,0.21394 0.3072,0.29738 -0.13893,0.29738 -0.21188,0 -0.32272,-0.10116 -0.2463,-0.2248 z M 55.461889,119.93694 c 0,-0.0549 0.208359,-0.2633 0.463021,-0.46302 0.419645,-0.32911 0.429003,-0.31975 0.0999,0.0999 -0.345644,0.44073 -0.562917,0.58088 -0.562917,0.36312 z m 2.248958,-2.54594 c 0.26339,-0.29104 0.538422,-0.52916 0.611182,-0.52916 0.07276,0 -0.08321,0.23812 -0.346598,0.52916 -0.263391,0.29104 -0.538422,0.52917 -0.611183,0.52917 -0.07276,0 0.08321,-0.23813 0.346599,-0.52917 z m 154.893503,-0.19843 -0.64143,-0.72761 0.72761,0.64143 c 0.40018,0.35279 0.7276,0.68022 0.7276,0.72761 0,0.2075 -0.21426,0.0386 -0.81378,-0.64143 z m -61.23722,-95.911456 -2.11046,-2.182813 2.18282,2.11046 c 2.02733,1.96013 2.30343,2.255165 2.11046,2.255165 -0.0398,0 -1.02206,-0.982265 -2.18282,-2.182812 z"
         style="fill:#a8a9a8;stroke-width:0.264583" />
      <path
         inkscape:connector-curvature="0"
         id="path61"
         d="m 76.893138,226.79621 c 0.341775,-0.36381 0.68094,-0.66146 0.7537,-0.66146 0.07276,0 -0.147341,0.29765 -0.489117,0.66146 -0.341775,0.3638 -0.680939,0.66145 -0.7537,0.66145 -0.07276,0 0.147341,-0.29765 0.489117,-0.66145 z m 116.661212,-0.0661 -0.64143,-0.7276 0.72761,0.64143 c 0.40018,0.35279 0.7276,0.68021 0.7276,0.7276 0,0.20751 -0.21426,0.0386 -0.81378,-0.64143 z m -133.743481,-4.10104 -0.777105,-0.8599 0.859896,0.77711 c 0.472942,0.42741 0.859895,0.81436 0.859895,0.85989 0,0.20441 -0.218315,0.0245 -0.942686,-0.7771 z m 150.167681,0.7771 c 0,-0.0455 0.38695,-0.43248 0.85989,-0.85989 l 0.8599,-0.77711 -0.77711,0.8599 c -0.72437,0.80154 -0.94268,0.98151 -0.94268,0.7771 z M 67.863555,213.76548 c -0.329107,-0.41965 -0.319749,-0.42901 0.0999,-0.0999 0.254661,0.19972 0.463021,0.40808 0.463021,0.46302 0,0.21776 -0.217273,0.0776 -0.562917,-0.36312 z m 134.442075,0.36312 c 0,-0.0549 0.20836,-0.2633 0.46302,-0.46302 0.41965,-0.32911 0.429,-0.31975 0.0999,0.0999 -0.34565,0.44073 -0.56292,0.58088 -0.56292,0.36312 z M 87.476471,203.80985 c 0,-0.0549 0.208359,-0.2633 0.463021,-0.46302 0.419645,-0.32911 0.429003,-0.31975 0.0999,0.0999 -0.345644,0.44073 -0.562917,0.58089 -0.562917,0.36312 z m 95.216239,-0.36312 c -0.3291,-0.41965 -0.31975,-0.42901 0.0999,-0.0999 0.25466,0.19972 0.46302,0.40808 0.46302,0.46302 0,0.21777 -0.21727,0.0776 -0.56292,-0.36312 z M 78.182304,202.65298 c -0.329107,-0.41965 -0.319749,-0.42901 0.0999,-0.0999 0.254662,0.19972 0.463021,0.40808 0.463021,0.46302 0,0.21777 -0.217273,0.0776 -0.562917,-0.36312 z m 113.804576,0.36312 c 0,-0.0549 0.20836,-0.2633 0.46302,-0.46302 0.41965,-0.32911 0.429,-0.31975 0.0999,0.0999 -0.34565,0.44073 -0.56292,0.58089 -0.56292,0.36312 z M 72.610195,200.81859 c 0.190995,-0.0764 0.419201,-0.067 0.507119,0.0209 0.08792,0.0879 -0.06835,0.15045 -0.347265,0.13896 -0.308227,-0.0127 -0.37092,-0.0754 -0.159854,-0.15985 z m 125.147905,0 c 0.191,-0.0764 0.4192,-0.067 0.50712,0.0209 0.0879,0.0879 -0.0684,0.15045 -0.34726,0.13896 -0.30823,-0.0127 -0.37092,-0.0754 -0.15986,-0.15985 z m -95.34095,-2.00207 -1.57922,-1.65365 1.65364,1.57922 c 1.5361,1.46696 1.77472,1.72808 1.57922,1.72808 -0.0409,0 -0.78508,-0.74415 -1.65364,-1.65365 z m 65.09577,0.0661 c 0.56839,-0.58209 1.09297,-1.05834 1.16573,-1.05834 0.0728,0 -0.33276,0.47625 -0.90114,1.05834 -0.56839,0.58208 -1.09297,1.05833 -1.16573,1.05833 -0.0728,0 0.33275,-0.47625 0.90114,-1.05833 z m -79.929296,-4.56407 -0.504028,-0.59531 0.595312,0.50403 c 0.559446,0.47366 0.715762,0.6866 0.504029,0.6866 -0.05021,0 -0.318098,-0.26789 -0.595313,-0.59532 z m 95.275136,0.0662 c 0.26339,-0.29104 0.53842,-0.52917 0.61118,-0.52917 0.0728,0 -0.0832,0.23813 -0.3466,0.52917 -0.26339,0.29104 -0.53842,0.52917 -0.61118,0.52917 -0.0728,0 0.0832,-0.23813 0.3466,-0.52917 z m -5.68855,-9.6249 c 0,-0.0549 0.20836,-0.2633 0.46303,-0.46302 0.41964,-0.3291 0.429,-0.31975 0.0999,0.0999 -0.34564,0.44073 -0.56292,0.58089 -0.56292,0.36312 z m -58.36576,-52.08916 -0.50403,-0.59531 0.59532,0.50403 c 0.32742,0.27721 0.59531,0.5451 0.59531,0.59531 0,0.21173 -0.21294,0.0554 -0.6866,-0.50403 z m 35.74389,-0.46302 c 0.56839,-0.58208 1.09297,-1.05833 1.16573,-1.05833 0.0728,0 -0.33276,0.47625 -0.90115,1.05833 -0.56838,0.58208 -1.09296,1.05833 -1.16572,1.05833 -0.0728,0 0.33275,-0.47625 0.90114,-1.05833 z m -36.94313,-0.72761 c -0.3291,-0.41964 -0.31974,-0.429 0.0999,-0.0999 0.44073,0.34564 0.58089,0.56292 0.36313,0.56292 -0.0549,0 -0.2633,-0.20836 -0.46302,-0.46303 z m 16.89986,-7.7449 c -2.76548,-0.69861 -5.48296,-2.99444 -6.70569,-5.66524 -0.73294,-1.60096 -1.05755,-4.25192 -0.71336,-5.82577 l 0.22872,-1.0458 1.35431,0.0719 c 1.79989,0.0955 3.30103,-0.3862 4.55908,-1.46304 1.3356,-1.14322 2.13792,-2.81104 2.13792,-4.44416 v -1.27757 l 2.02258,0.15297 c 3.70641,0.28031 6.91094,2.52155 8.50895,5.95113 0.59924,1.28607 0.70494,1.86993 0.70494,3.89415 0,2.02422 -0.1057,2.60809 -0.70494,3.89416 -1.60207,3.43828 -4.8517,5.71041 -8.44281,5.90318 -1.07603,0.0578 -2.4034,-0.008 -2.9497,-0.14589 z m 27.60478,-7.02766 c 0.0127,-0.30823 0.0754,-0.37092 0.15985,-0.15986 0.0764,0.191 0.067,0.4192 -0.0209,0.50712 -0.0879,0.0879 -0.15045,-0.0684 -0.13897,-0.34726 z M 118.16813,95.827462 c 0.49366,-0.50932 0.95709,-0.92604 1.02985,-0.92604 0.0728,0 -0.27161,0.41672 -0.76527,0.92604 -0.49365,0.50933 -0.95708,0.92604 -1.02984,0.92604 -0.0728,0 0.27161,-0.41671 0.76526,-0.92604 z m 36.49826,-0.0661 -0.9118,-0.99219 0.99219,0.9118 c 0.9235,0.84868 1.11384,1.07257 0.9118,1.07257 -0.0442,0 -0.4907,-0.44648 -0.99219,-0.99218 z M 109.70147,32.88903 c 0,-0.05494 0.20835,-0.2633 0.46302,-0.463021 0.41964,-0.329107 0.429,-0.319749 0.0999,0.0999 -0.34565,0.44073 -0.56292,0.580887 -0.56292,0.363125 z m 49.97249,-2.744375 c -0.3291,-0.419645 -0.31974,-0.429003 0.0999,-0.0999 0.25466,0.199721 0.46302,0.40808 0.46302,0.463021 0,0.217762 -0.21727,0.07761 -0.56292,-0.363125 z M 112.3473,29.978613 c 0,-0.05494 0.20836,-0.2633 0.46302,-0.463021 0.41964,-0.329107 0.429,-0.319749 0.0999,0.0999 -0.34564,0.44073 -0.56292,0.580888 -0.56292,0.363125 z m 44.02799,-3.405833 -0.50403,-0.595312 0.59531,0.504028 c 0.32742,0.277215 0.59531,0.545106 0.59531,0.595312 0,0.211734 -0.21293,0.05542 -0.68659,-0.504028 z m -39.53008,-1.389062 c 0.34178,-0.363802 0.68094,-0.661458 0.7537,-0.661458 0.0728,0 -0.14734,0.297656 -0.48911,0.661458 -0.34178,0.363802 -0.68094,0.661458 -0.7537,0.661458 -0.0728,0 0.14734,-0.297656 0.48911,-0.661458 z m 29.47591,-8.665104 -0.50403,-0.595312 0.59531,0.504028 c 0.32743,0.277215 0.59532,0.545106 0.59532,0.595312 0,0.211734 -0.21294,0.05542 -0.6866,-0.504028 z M 127.16396,14.91447 c 0,-0.04554 0.38696,-0.432488 0.8599,-0.859896 l 0.8599,-0.777106 -0.77711,0.859896 c -0.72437,0.801543 -0.94269,0.981512 -0.94269,0.777106 z m 5.55626,-5.3087709 c 0,-0.05494 0.20836,-0.263302 0.46302,-0.463021 0.41964,-0.329107 0.429,-0.319749 0.0999,0.0999 -0.34564,0.440729 -0.56291,0.580887 -0.56291,0.363126 z"
         style="fill:#000000;fill-opacity:1;stroke-width:0.264583" />
      <path
         sodipodi:nodetypes="ccccccccsccccccssccscccccsscscccscccssssscsscscc"
         inkscape:connector-curvature="0"
         id="path59"
         d="m 131.80232,225.06455 c -6.92899,-1.0888 -12.85801,-5.48074 -15.73807,-11.65799 -0.77613,-1.66469 -1.74874,-4.93863 -1.53164,-5.15574 0.061,-0.061 1.3505,0.47227 2.86545,1.18515 3.3684,1.58505 6.7751,2.74138 10.36147,3.51697 3.8748,0.83798 10.79783,0.84056 14.65707,0.005 3.28205,-0.7102 7.29608,-2.08675 10.63563,-3.64733 1.37878,-0.64431 2.55687,-1.12147 2.61798,-1.06037 0.27782,0.27783 -0.83908,3.69539 -1.94084,5.93868 -1.00638,2.04909 -1.60898,2.86775 -3.5056,4.7625 -3.04559,3.04258 -5.82187,4.63468 -9.9792,5.72274 -1.96645,0.51465 -6.35773,0.71747 -8.44225,0.38991 z m 86.5394,-27.94691 c -0.4737,-4.03044 -3.5015,-7.57264 -7.54999,-8.83267 -0.90974,-0.28314 -2.06019,-0.5148 -2.55655,-0.5148 -0.49636,0 -0.90247,-0.0373 -0.90247,-0.083 0,-0.0456 0.58282,-1.26601 1.29514,-2.71198 1.73604,-3.52399 3.05015,-7.13113 3.96879,-10.89406 1.10635,-4.53178 1.46437,-7.58904 1.46437,-12.50474 0,-8.52734 -1.74252,-15.9509 -5.53973,-23.60059 l -1.40517,-2.8308 1.34319,-1.66712 c 2.88083,-3.57556 4.36637,-8.27404 4.0793,-12.90206 -0.0861,-1.38787 -5.77259,-10.26319 -5.8631,-10.627 -0.23442,-0.9424 7.92197,9.2394 10.34193,12.47206 7.45176,9.9543 11.61985,21.47547 12.58794,34.79473 0.81645,11.23305 -1.68497,24.07367 -6.59461,33.85237 -0.88284,1.75839 -4.27537,7.55007 -4.42252,7.55007 -0.0386,0 -0.14953,-0.6752 -0.24652,-1.50044 z m -168.244223,-1.7931 c -5.300134,-8.8894 -8.163078,-18.27492 -8.972791,-29.41527 -0.814575,-11.20723 1.689285,-24.04208 6.600412,-33.83389 4.254676,-8.43021 8.274503,-13.47797 14.54067,-20.30659 -0.821048,5.85851 -3.270624,17.8309 -0.233583,21.73901 0.751951,0.93335 1.367184,1.77436 1.367184,1.8689 0,0.0945 -0.582814,1.35495 -1.295141,2.80091 -1.736037,3.524 -3.050143,7.13113 -3.96879,10.89406 -1.106347,4.53179 -1.464368,7.58904 -1.464368,12.50475 0,4.9157 0.358021,7.97296 1.464368,12.50474 0.918647,3.76293 2.232753,7.37007 3.96879,10.89406 0.712327,1.44597 1.295141,2.66636 1.295141,2.71198 0,0.0456 -0.465643,0.083 -1.034762,0.083 -0.569116,0 -1.779095,0.23166 -2.688836,0.5148 -3.909655,1.21683 -6.744009,4.3875 -7.478209,8.36557 l -0.309534,1.67713 z"
         style="fill:#c3c3c3;fill-opacity:1;stroke:#000000;stroke-width:3;stroke-miterlimit:4;stroke-dasharray:none;stroke-opacity:1" />
      <path
         sodipodi:nodetypes="csscccscsscssccccccccscsccsccsccccccssccccccccscccccccccsccccccccsccccccsccscccccccsscccccscsccssccscscc"
         inkscape:connector-curvature="0"
         id="path57"
         d="m 70.110629,227.59176 c -3.764592,-0.81872 -7.011741,-2.59124 -9.733962,-5.31346 -3.968371,-3.96837 -5.910098,-8.98508 -5.624674,-14.53209 0.4298,-8.35282 5.745086,-15.07808 13.939062,-17.63664 3.665055,-0.80822 7.216743,-1.03545 10.583333,0 2.588339,0.80821 5.040812,2.10688 7.052286,3.73444 2.004261,1.62172 2.737297,3.00648 2.737297,5.17095 0,3.13256 -1.714826,5.07715 -4.717338,5.34941 -2.039575,0.18494 -3.478927,-0.30477 -5.497785,-1.87051 -1.947116,-1.5101 -3.381269,-2.02369 -5.650881,-2.02369 -3.128295,0 -5.73088,1.71857 -7.199942,4.75437 -0.894069,1.84759 -0.837864,4.69929 0.131681,6.68097 1.306523,2.67044 3.213012,3.93386 7.090089,4.69857 2.029018,0.4002 4.158872,1.72763 4.811901,2.99902 0.704371,1.37134 0.667175,3.47368 -0.08806,4.97768 -1.565868,3.11828 -3.652134,3.92024 -7.833003,3.01098 z m 125.448131,-0.0255 c -2.86405,-1.57855 -4.21071,-5.33022 -2.85835,-7.96312 0.65302,-1.27139 2.78288,-2.59882 4.8119,-2.99902 3.87707,-0.76471 5.78356,-2.02813 7.09009,-4.69857 0.61551,-1.25806 0.7367,-1.84222 0.72537,-3.49632 -0.0222,-3.24151 -1.53734,-5.70047 -4.39113,-7.12653 -1.33045,-0.66483 -1.94882,-0.81249 -3.40251,-0.81249 -2.26961,0 -3.70376,0.51359 -5.65088,2.02369 -2.01885,1.56574 -3.45821,2.05545 -5.49778,1.87051 -3.00251,-0.27226 -4.71734,-2.21685 -4.71734,-5.34941 0,-2.16447 0.73304,-3.54923 2.7373,-5.17095 2.01147,-1.62756 4.46394,-2.92623 7.05228,-3.73444 1.63617,-0.51088 2.56473,-0.61961 5.29167,-0.61961 2.72694,0 3.6555,0.10873 5.29167,0.61961 6.63753,2.07257 11.17784,6.61626 13.27043,13.28034 0.89039,2.83551 0.89065,7.72347 5.3e-4,10.574 -1.66764,5.34077 -5.13107,9.53528 -9.82966,11.90458 -3.47362,1.75159 -8.32123,2.58092 -9.92363,1.69773 z M 129.29403,200.43099 C 101.71259,197.55085 77.688343,174.20841 69.892631,142.7154 66.944959,130.80742 66.34246,118.46838 68.178131,107.60283 83.476967,63.639575 101.50657,37.64934 134.22246,8.9922691 l 1.40185,-1.197635 3.03677,2.5451759 c 31.04916,28.232833 64.45073,70.6706 65.23114,110.91537 0.005,19.63738 -6.30932,38.42676 -17.9964,53.5504 -2.78962,3.60991 -9.61402,10.32372 -13.22352,13.00925 -4.15724,3.09305 -6.88271,4.75711 -11.25835,6.87387 -10.05643,4.86493 -21.28986,6.8732 -32.11992,5.74229 z m 8.98244,-35.54728 v -8.59896 h -2.51355 -2.51354 v 8.59896 8.59896 h 2.51354 2.51355 z m -9.26042,-0.52917 v -8.06979 h -2.64584 -2.64583 v 7.52187 7.52186 l 1.52136,0.30451 c 0.83674,0.16748 1.87854,0.40331 2.3151,0.52406 0.43656,0.12076 0.94258,0.2303 1.12448,0.24342 0.25787,0.0186 0.33073,-1.75376 0.33073,-8.04593 z m 16.7349,7.40009 2.05052,-0.44175 v -7.51406 -7.51407 h -2.51355 -2.51354 v 8.08762 c 0,7.57632 0.0293,8.07929 0.46302,7.95582 0.25466,-0.0725 1.38576,-0.33059 2.51355,-0.57356 z m -26.2599,-9.64905 v -5.82083 h -2.38125 -2.38125 v 4.6061 4.60609 l 2.18281,1.19982 c 1.20055,0.65991 2.27211,1.20654 2.38125,1.21474 0.10914,0.008 0.19844,-2.60446 0.19844,-5.80592 z m 34.99114,4.74 2.05053,-0.88239 v -4.83922 -4.83922 h -2.38125 -2.38125 v 5.84914 c 0,4.57094 0.0723,5.82127 0.33072,5.72161 0.18191,-0.0701 1.25347,-0.52461 2.38125,-1.00992 z m -12.74662,-23.15972 c 2.63296,-0.4519 6.10765,-1.57015 8.31485,-2.67595 3.73163,-1.86952 8.14836,-5.60325 10.69813,-9.04376 7.42898,-10.02422 7.79005,-23.55304 0.91338,-34.222438 -1.42881,-2.21685 -4.90856,-5.87219 -7.22282,-7.58729 -10.45011,-7.744607 -25.18779,-7.745136 -35.5282,-0.001 -2.28253,1.70937 -5.78989,5.40863 -7.19491,7.58857 -6.58005,10.209178 -6.58005,22.735408 0,32.944588 1.42881,2.21684 4.90856,5.87219 7.22282,7.58729 6.44988,4.78002 14.85147,6.77394 22.79675,5.41028 z"
         style="fill:#ffffff;fill-opacity:1;stroke:#000000;stroke-width:3.5;stroke-miterlimit:4;stroke-dasharray:none;stroke-opacity:0.647773" />
      <path
         sodipodi:nodetypes="csccsccccsccccsscccsssccsscsccscscscscscccsscccscccssccccsccsccscccccccccsssccccsscsssccsscscsccccsscssccssssccccccccccccccccccccccccsccscccccccscccccccccccscccccccccccccssccsscsccssccsscssscsscssccssc"
         inkscape:connector-curvature="0"
         id="path55"
         d="m 71.511651,228.20987 c -6.394333,-0.79805 -12.199839,-4.88872 -15.070055,-10.61865 -1.516766,-3.02798 -2.097651,-5.58953 -2.082564,-9.18355 0.01238,-2.95136 -0.01476,-3.09832 -0.904722,-4.8948 -1.177501,-2.37694 -1.576737,-4.73853 -1.162944,-6.87916 1.338373,-6.92367 8.748294,-10.66479 15.238351,-7.69354 1.324668,0.60645 1.59572,0.64497 2.705801,0.38459 2.013238,-0.47223 6.248963,-0.33521 8.605072,0.27835 3.991774,1.03953 8.460346,3.88519 9.871887,6.28659 0.631042,1.07357 0.748369,1.56679 0.748369,3.14601 0,1.6164 -0.108871,2.05112 -0.79515,3.175 -1.937914,3.1736 -6.721491,3.51767 -9.933918,0.7145 -3.020441,-2.63563 -7.018068,-2.83848 -10.066541,-0.5108 -2.609847,1.99277 -3.643556,6.01381 -2.298332,8.94032 1.259316,2.73961 3.129838,4.15757 6.218896,4.71427 3.130574,0.56418 5.096682,1.74453 5.917824,3.55274 1.543711,3.39935 -0.846534,7.99319 -4.520904,8.68877 -0.363802,0.0689 -1.475785,0.0236 -2.47107,-0.10064 z m 3.738382,-0.72646 c 2.767518,-1.41926 4.125002,-5.26495 2.781663,-7.88031 -0.653029,-1.27139 -2.782883,-2.59882 -4.811901,-2.99902 -3.877077,-0.76471 -5.783566,-2.02813 -7.090089,-4.69857 -0.615511,-1.25806 -0.736706,-1.84222 -0.725374,-3.49632 0.0222,-3.24151 1.537335,-5.70047 4.391126,-7.12653 1.330451,-0.66483 1.94882,-0.81249 3.402509,-0.81249 2.269612,0 3.703765,0.51359 5.650881,2.02369 2.018858,1.56574 3.45821,2.05545 5.497785,1.87051 3.002512,-0.27226 4.717338,-2.21685 4.717338,-5.34941 0,-2.16447 -0.733036,-3.54923 -2.737297,-5.17095 -2.011474,-1.62756 -4.463947,-2.92623 -7.052286,-3.73444 -1.636162,-0.51088 -2.564731,-0.61961 -5.291667,-0.61961 -2.726936,0 -3.655504,0.10873 -5.291666,0.61961 -8.193976,2.55856 -13.509262,9.28382 -13.939062,17.63664 -0.205324,3.99032 0.701742,7.52556 2.86503,11.16627 1.139082,1.91703 4.208439,4.98639 6.125464,6.12547 4.212153,2.50283 9.291058,3.58214 11.507546,2.44546 z m 120.853107,0.68176 c -1.42801,-0.34908 -3.36493,-2.31813 -3.93973,-4.00509 -1.43407,-4.20877 0.7377,-7.14581 5.98289,-8.09108 3.08906,-0.5567 4.95958,-1.97466 6.2189,-4.71427 0.55647,-1.2106 0.63413,-1.69806 0.52971,-3.32507 -0.42571,-6.6336 -7.79779,-9.55191 -12.89459,-5.10445 -3.21242,2.80317 -7.996,2.4591 -9.93391,-0.7145 -0.68628,-1.12388 -0.79515,-1.5586 -0.79515,-3.175 0,-1.57922 0.11732,-2.07244 0.74836,-3.14601 1.41155,-2.4014 5.88012,-5.24706 9.87189,-6.28659 2.31723,-0.60344 6.58723,-0.75291 8.51565,-0.2981 1.00025,0.23591 1.3251,0.18707 2.58146,-0.38811 6.42608,-2.94196 13.857,0.8337 15.18753,7.71681 0.41373,2.14029 0.0151,4.5216 -1.13446,6.7767 -0.85788,1.68294 -0.8834,1.81908 -0.66959,3.57188 0.7408,6.07276 -2.38301,13.26767 -7.45483,17.17035 -3.78982,2.9162 -9.71241,4.77075 -12.81413,4.01253 z m 6.0702,-0.98982 c 6.48898,-2.00468 11.0813,-6.62242 13.13871,-13.21144 0.89008,-2.85053 0.88982,-7.73849 -5.3e-4,-10.574 -2.09263,-6.66408 -6.63294,-11.20777 -13.27047,-13.28034 -1.63617,-0.51088 -2.56473,-0.61961 -5.29167,-0.61961 -2.72694,0 -3.6555,0.10873 -5.29167,0.61961 -2.58834,0.80821 -5.04081,2.10688 -7.05228,3.73444 -2.00426,1.62172 -2.7373,3.00648 -2.7373,5.17095 0,3.13256 1.71483,5.07715 4.71734,5.34941 2.03957,0.18494 3.47893,-0.30477 5.49778,-1.87051 1.94712,-1.5101 3.38127,-2.02369 5.65088,-2.02369 3.1283,0 5.73088,1.71857 7.19995,4.75437 0.89407,1.84759 0.83786,4.69929 -0.13168,6.68097 -1.30653,2.67044 -3.21302,3.93386 -7.09009,4.69857 -2.02902,0.4002 -4.15888,1.72763 -4.8119,2.99902 -1.35236,2.6329 -0.006,6.38457 2.85835,7.96312 1.04356,0.57517 4.06561,0.39659 6.61458,-0.39087 z m -70.11458,-13.64126 c -2.42592,-0.2583 -6.94891,-1.23516 -9.21478,-1.99016 -12.71769,-4.23765 -25.815377,-15.85157 -28.601376,-25.36126 -0.372091,-1.2701 -0.809987,-1.85023 -3.442406,-4.56053 C 84.94625,175.595 80.47399,169.35102 76.687223,161.9182 73.239322,155.15051 71.487002,150.51137 69.615618,143.19661 l -1.148498,-4.48918 -1.80626,-1.16926 c -9.752618,4.83971 -15.215937,-20.36767 -0.09854,-31.76029 l 1.669124,-1.07881 1.004139,-3.90664 c 6.075402,-23.636555 21.950882,-48.573017 48.635329,-76.394095 4.87683,-5.084553 17.25431,-17.0634889 17.62743,-17.0598379 0.14552,0.0014 1.69333,1.197976 3.43958,2.659005 9.42582,7.8862609 20.67889,19.4871999 29.74486,30.6643399 17.12472,21.112537 28.49781,42.098043 33.22177,61.300468 l 0.72815,2.95985 1.49011,0.98841 c 5.78666,3.83836 9.20313,11.27198 8.26445,17.98196 -0.79353,5.6724 -3.72188,10.43694 -8.26456,13.44676 -1.31931,0.87413 -1.51008,1.11442 -1.6634,2.09506 -0.54581,3.49125 -2.53001,10.21211 -4.40801,14.93076 -4.32698,10.87192 -10.27016,19.88505 -18.53894,28.11528 -2.01578,2.00637 -3.66505,3.81765 -3.66505,4.02505 0,0.78933 -2.37459,5.19179 -3.92402,7.27509 -7.12303,9.5773 -19.44116,17.35324 -30.46534,19.23155 -2.59991,0.44297 -7.55629,0.71824 -9.39918,0.52201 z m 9.16624,-13.07566 c 8.80544,-0.888 18.59074,-4.24533 26.15563,-8.974 6.26328,-3.91506 14.12326,-10.99548 18.51519,-16.67885 11.68708,-15.12364 18.00153,-33.91302 17.9964,-53.5504 C 203.88622,97.606222 191.92328,70.33511 169.03075,41.782749 160.10532,30.650636 148.25058,18.376954 138.66108,10.33981 l -3.03677,-2.5451759 -1.40185,1.197635 C 131.59491,11.237059 118.781,23.964913 114.39954,28.682065 87.600579,57.534294 72.192141,83.843438 68.178131,107.60283 c -1.835671,10.86555 -1.233172,23.20459 1.7145,35.11257 5.742096,23.19684 20.339343,42.38366 39.411959,51.80361 10.03006,4.95385 21.15922,7.02464 31.92041,5.93942 z m -7.44645,-35.57472 v -8.06979 h 1.98437 1.98438 v 8.06979 8.06979 h -1.98438 -1.98437 z m -5.36183,7.325 c 0.24454,-0.15532 0.34538,-2.20047 0.40096,-8.13188 l 0.0743,-7.92437 0.0621,8.13594 c 0.0579,7.59709 0.0314,8.13567 -0.40096,8.13188 -0.32569,-0.003 -0.36612,-0.0656 -0.13631,-0.21157 z m -1.38505,-0.76119 c -0.29104,-0.0669 -0.97565,-0.2363 -1.52135,-0.37638 l -0.99219,-0.2547 v -7.00126 -7.00126 h 1.85208 1.85209 v 7.40833 c 0,5.76665 -0.0733,7.40153 -0.33073,7.37764 -0.1819,-0.0169 -0.56886,-0.0855 -0.8599,-0.15237 z m 16.27188,-7.22527 v -7.40833 h 1.98437 1.98438 v 7.00642 7.00641 l -0.59531,0.13519 c -1.68196,0.38197 -2.99782,0.6564 -3.175,0.66217 -0.10914,0.004 -0.19844,-3.32728 -0.19844,-7.40186 z m -19.46238,-0.39687 c 1.2e-4,-4.22011 0.0366,-5.90946 0.0812,-3.75413 0.0445,2.15533 0.0444,5.60815 -2.3e-4,7.67291 -0.0447,2.06478 -0.0811,0.30132 -0.081,-3.91878 z m -6.73137,2.28444 -1.71979,-0.96856 -0.0729,-4.16367 -0.0729,-4.16367 h 1.8588 1.8588 v 5.15937 c 0,2.83766 -0.0298,5.14716 -0.0662,5.13223 -0.0364,-0.0149 -0.84005,-0.46299 -1.78594,-0.9957 z m 35.18958,-4.1477 v -5.1482 h 1.85848 1.85848 l -0.0725,4.3866 -0.0725,4.38661 -1.78594,0.7616 -1.78594,0.7616 z M 133.7124,143.93869 c 0.1819,-0.0734 0.47956,-0.0734 0.66146,0 0.1819,0.0734 0.0331,0.13345 -0.33073,0.13345 -0.3638,0 -0.51263,-0.0601 -0.33073,-0.13345 z m 5.29167,0 c 0.1819,-0.0734 0.47956,-0.0734 0.66146,0 0.1819,0.0734 0.0331,0.13345 -0.33073,0.13345 -0.3638,0 -0.51263,-0.0601 -0.33073,-0.13345 z m -32.17125,-27.07685 c 0,-0.36381 0.0601,-0.51263 0.13346,-0.33073 0.0734,0.1819 0.0734,0.47955 0,0.66146 -0.0734,0.1819 -0.13346,0.0331 -0.13346,-0.33073 z m 59.53125,0 c 0,-0.36381 0.0601,-0.51263 0.13346,-0.33073 0.0734,0.1819 0.0734,0.47955 0,0.66146 -0.0734,0.1819 -0.13346,0.0331 -0.13346,-0.33073 z m -59.53125,-5.29167 c 0,-0.3638 0.0601,-0.51263 0.13346,-0.33073 0.0734,0.1819 0.0734,0.47956 0,0.66146 -0.0734,0.1819 -0.13346,0.0331 -0.13346,-0.33073 z m 59.53125,0 c 0,-0.3638 0.0601,-0.51263 0.13346,-0.33073 0.0734,0.1819 0.0734,0.47956 0,0.66146 -0.0734,0.1819 -0.13346,0.0331 -0.13346,-0.33073 z M 133.7124,84.407445 c 0.1819,-0.0734 0.47956,-0.0734 0.66146,0 0.1819,0.0734 0.0331,0.133453 -0.33073,0.133453 -0.3638,0 -0.51263,-0.06006 -0.33073,-0.133453 z m 5.29167,0 c 0.1819,-0.0734 0.47956,-0.0734 0.66146,0 0.1819,0.0734 0.0331,0.133453 -0.33073,0.133453 -0.3638,0 -0.51263,-0.06006 -0.33073,-0.133453 z"
         style="fill:#000000;fill-opacity:1;stroke-width:0.264583" />
      <path
         sodipodi:nodetypes="cccccccccccccccccccccccccccccscccccccsscccccccssccccccscsccccccsccccccccccccccccccccccccccccccccssssssccccccssccc"
         inkscape:connector-curvature="0"
         id="path53"
         d="m 133.24938,164.88371 v -8.59896 h 2.51354 2.51355 v 8.59896 8.59896 h -2.51355 -2.51354 z m 4.49792,0 v -8.06979 h -1.98438 -1.98437 v 8.06979 8.06979 h 1.98437 1.98438 z m -11.9724,6.80582 -1.78594,-0.403 v -7.50089 -7.50089 h 2.38125 2.38125 v 7.9375 7.9375 l -0.59531,-0.0336 c -0.32742,-0.0185 -1.39898,-0.21496 -2.38125,-0.43661 z m 2.4474,-7.46728 v -7.40833 h -1.85209 -1.85208 v 7.00126 7.00126 l 0.99219,0.2547 c 1.41122,0.36226 2.00285,0.49364 2.38125,0.52875 0.25744,0.0239 0.33073,-1.61099 0.33073,-7.37764 z m 14.55208,0 v -7.9375 h 2.51354 2.51355 v 7.48633 7.48632 l -2.18282,0.4524 c -1.20054,0.24882 -2.33164,0.45185 -2.51354,0.45118 -0.2572,-9.6e-4 -0.33073,-1.76577 -0.33073,-7.93873 z m 2.11667,7.13514 c 0.65484,-0.14314 1.45851,-0.32109 1.78594,-0.39545 l 0.59531,-0.13519 v -7.00641 -7.00642 h -1.98438 -1.98437 v 7.40833 c 0,4.07458 0.0893,7.40542 0.19844,7.40186 0.10914,-0.004 0.73422,-0.12358 1.38906,-0.26672 z m -27.84436,-4.69538 -2.31207,-1.24913 -0.003,-4.56407 -0.003,-4.56406 h 2.38118 2.38125 v 5.82083 c 0,3.20146 -0.0298,5.8174 -0.0661,5.8132 -0.0364,-0.004 -1.10658,-0.56974 -2.37822,-1.25677 z m 1.91519,-4.68872 v -5.15937 h -1.8588 -1.8588 l 0.0729,4.16367 0.0729,4.16367 1.71979,0.96856 c 0.94588,0.53271 1.74956,0.98078 1.78594,0.9957 0.0364,0.0149 0.0661,-2.29457 0.0661,-5.13223 z m 32.80834,0.12575 v -5.81429 h 2.38125 2.38125 v 4.77357 4.77356 l -1.78594,0.808 c -0.98227,0.4444 -2.05383,0.91272 -2.38125,1.04072 l -0.59531,0.23272 z m 4.17358,-0.89852 0.0725,-4.3866 h -1.85848 -1.85848 v 5.1482 5.14821 l 1.78594,-0.7616 1.78594,-0.7616 z m -23.09129,-17.38488 c -9.72234,-1.21442 -18.57231,-7.58183 -22.88472,-16.46519 -4.14739,-8.54343 -4.14739,-17.72546 0,-26.2689 6.25543,-12.885888 21.08323,-19.503157 34.85361,-15.554269 15.81102,4.534071 25.05543,21.091369 20.5583,36.821159 -4.0525,14.17461 -17.87533,23.29736 -32.52719,21.4672 z m 10.79191,-5.09229 c 8.79401,-2.64135 15.11688,-8.9431 17.81998,-17.76047 0.93642,-4.84489 1.39915,-9.43016 0.0255,-13.92729 -1.30727,-4.24135 -3.00548,-7.317668 -5.68979,-10.307078 -2.94149,-3.27583 -7.56529,-6.15794 -12.11602,-7.55216 -4.95133,-0.945544 -9.67808,-1.390961 -14.25489,0 -4.55073,1.39422 -9.17453,4.27633 -12.11602,7.55216 -4.10129,4.567448 -6.23232,9.815848 -6.48524,15.972128 -0.1671,4.06744 0.17982,6.51955 1.41007,9.96648 2.99312,8.3862 10.07465,14.4958 19.18915,16.55545 4.18153,0.46155 8.53611,0.59283 12.21723,-0.49922 z"
         style="fill:#000000;fill-opacity:1;stroke-width:0.264583" />
      <rect
         y="149.77342"
         x="95.106583"
         height="26.894939"
         width="83.204475"
         id="rect896"
         style="fill:#ffffff;fill-opacity:1;stroke:none;stroke-width:0.242405;stroke-opacity:0.647773" />
      <path
         sodipodi:nodetypes="ccccc"
         inkscape:connector-curvature="0"
         transform="scale(0.26458333)"
         d="M 562.24414,84.732422 C 645.23565,182.81504 681.14055,309.00792 681.14062,470.17383 681.14093,552.1531 669.96011,633.53928 645.75586,706.54297 733.94029,640.32236 761.99065,542.77337 762.8864,460.16079 760.17821,320.50427 670.51355,198.13049 562.24414,84.732422 Z"
         style="fill:#f0f0f0;fill-opacity:1;stroke:none;stroke-width:13.2283;stroke-miterlimit:4;stroke-dasharray:none;stroke-opacity:0.647773"
         id="path850" />
    </g>
  </g>
</svg>
